<?xml version="1.0" encoding="UTF-8" standalone="no"?>
<!DOCTYPE svg PUBLIC "-//W3C//DTD SVG 1.1//EN" "http://www.w3.org/Graphics/SVG/1.1/DTD/svg11.dtd">
<svg width="100%" height="100%" viewBox="0 0 235 235" version="1.1" xmlns="http://www.w3.org/2000/svg" xmlns:xlink="http://www.w3.org/1999/xlink" xml:space="preserve" xmlns:serif="http://www.serif.com/" style="fill-rule:evenodd;clip-rule:evenodd;stroke-linejoin:round;stroke-miterlimit:2;">
    <g transform="matrix(1,0,0,1,-907.051,-942.946)">
        <path fill="#E7E7E7" d="M1142.03,1059.98C1142.03,1028.94 1129.7,999.173 1107.75,977.224C1085.81,955.276 1056.04,942.946 1025,942.946L1024.09,942.946C993.046,942.946 963.278,955.276 941.329,977.224C919.381,999.173 907.051,1028.94 907.051,1059.98L907.051,1060.89C907.051,1091.93 919.381,1121.7 941.329,1143.65C963.278,1165.6 993.046,1177.93 1024.09,1177.93L1025,1177.93C1056.04,1177.93 1085.81,1165.6 1107.75,1143.65C1129.7,1121.7 1142.03,1091.93 1142.03,1060.89L1142.03,1059.98ZM1091.15,1060.44C1091.15,1042.77 1084.13,1025.83 1071.64,1013.34C1059.15,1000.84 1042.21,993.827 1024.54,993.827L1024.54,993.827C1006.88,993.827 989.933,1000.84 977.441,1013.34C964.949,1025.83 957.932,1042.77 957.932,1060.44L957.932,1060.44C957.932,1078.1 964.949,1095.05 977.441,1107.54C989.933,1120.03 1006.88,1127.05 1024.54,1127.05L1024.54,1127.05C1042.21,1127.05 1059.15,1120.03 1071.64,1107.54C1084.13,1095.05 1091.15,1078.1 1091.15,1060.44L1091.15,1060.44Z"/>
    </g>
</svg>
