<?xml version="1.0" encoding="UTF-8" standalone="no"?>
<!DOCTYPE svg PUBLIC "-//W3C//DTD SVG 1.1//EN" "http://www.w3.org/Graphics/SVG/1.1/DTD/svg11.dtd">
<svg width="100%" height="100%" viewBox="0 0 235 235" version="1.1" xmlns="http://www.w3.org/2000/svg" xmlns:xlink="http://www.w3.org/1999/xlink" xml:space="preserve" xmlns:serif="http://www.serif.com/" style="fill-rule:evenodd;clip-rule:evenodd;stroke-linejoin:round;stroke-miterlimit:2;">
    <g transform="matrix(1,0,0,1,-907.051,-1322.06)">
        <path fill="#E7E7E7" d="M1024.54,1390.56L963.982,1330C958.898,1324.91 952.003,1322.06 944.813,1322.06C937.623,1322.06 930.728,1324.91 925.644,1330C922.144,1333.5 918.491,1337.15 914.991,1340.65C909.907,1345.73 907.051,1352.63 907.051,1359.82C907.051,1367.01 909.907,1373.9 914.991,1378.99L975.551,1439.55L914.991,1500.11C909.907,1505.19 907.051,1512.09 907.051,1519.28C907.051,1526.46 909.907,1533.36 914.991,1538.44C918.491,1541.94 922.144,1545.6 925.644,1549.1C930.728,1554.18 937.623,1557.04 944.813,1557.04C952.003,1557.04 958.898,1554.18 963.982,1549.1L1024.54,1488.54L1085.1,1549.1C1090.18,1554.18 1097.08,1557.04 1104.27,1557.04C1111.46,1557.04 1118.36,1554.18 1123.44,1549.1C1126.94,1545.6 1130.59,1541.94 1134.09,1538.44C1139.18,1533.36 1142.03,1526.46 1142.03,1519.28C1142.03,1512.09 1139.18,1505.19 1134.09,1500.11L1073.53,1439.55L1134.09,1378.99C1139.18,1373.9 1142.03,1367.01 1142.03,1359.82C1142.03,1352.63 1139.18,1345.73 1134.09,1340.65C1130.59,1337.15 1126.94,1333.5 1123.44,1330C1118.36,1324.91 1111.46,1322.06 1104.27,1322.06C1097.08,1322.06 1090.18,1324.91 1085.1,1330L1024.54,1390.56Z"/>
    </g>
</svg>
